<svg id="visual" viewBox="0 0 900 600" width="900" height="600" xmlns="http://www.w3.org/2000/svg" xmlns:xlink="http://www.w3.org/1999/xlink" version="1.1"><rect x="0" y="0" width="900" height="600" fill="#006E61"></rect><path d="M500 0L474.7 10C449.3 20 398.7 40 380.3 60C362 80 376 100 395.2 120C414.3 140 438.7 160 456.5 180C474.3 200 485.7 220 482.2 240C478.7 260 460.3 280 449 300C437.7 320 433.3 340 419.5 360C405.7 380 382.3 400 393.8 420C405.3 440 451.7 460 455.3 480C459 500 420 520 414.3 540C408.7 560 436.3 580 450.2 590L464 600L0 600L0 590C0 580 0 560 0 540C0 520 0 500 0 480C0 460 0 440 0 420C0 400 0 380 0 360C0 340 0 320 0 300C0 280 0 260 0 240C0 220 0 200 0 180C0 160 0 140 0 120C0 100 0 80 0 60C0 40 0 20 0 10L0 0Z" fill="#FFBA09" stroke-linecap="round" stroke-linejoin="miter"></path></svg>