<svg width="14" height="14" viewBox="0 0 14 14" fill="none" xmlns="http://www.w3.org/2000/svg">
<path d="M10.586 6.157L6.636 2.207C6.45384 2.0184 6.35305 1.7658 6.35533 1.5036C6.3576 1.2414 6.46277 0.990592 6.64818 0.805184C6.83359 0.619776 7.0844 0.514607 7.3466 0.512329C7.6088 0.51005 7.8614 0.610845 8.05 0.793003L13.707 6.45C13.8002 6.54266 13.8741 6.65282 13.9246 6.77415C13.9751 6.89548 14.001 7.02559 14.001 7.157C14.001 7.28841 13.9751 7.41852 13.9246 7.53986C13.8741 7.66119 13.8002 7.77135 13.707 7.864L8.05 13.521C7.95775 13.6165 7.84741 13.6927 7.7254 13.7451C7.6034 13.7975 7.47218 13.8251 7.3394 13.8263C7.20662 13.8274 7.07494 13.8021 6.95205 13.7518C6.82915 13.7015 6.7175 13.6273 6.62361 13.5334C6.52971 13.4395 6.45546 13.3279 6.40518 13.205C6.3549 13.0821 6.3296 12.9504 6.33075 12.8176C6.3319 12.6848 6.35949 12.5536 6.4119 12.4316C6.46431 12.3096 6.54049 12.1993 6.636 12.107L10.586 8.157H1C0.734784 8.157 0.48043 8.05165 0.292893 7.86411C0.105357 7.67657 0 7.42222 0 7.157C0 6.89179 0.105357 6.63743 0.292893 6.4499C0.48043 6.26236 0.734784 6.157 1 6.157H10.586Z" fill="#DFE0DF"/>
</svg>
